<svg width="119" height="46" viewBox="0 0 119 46" fill="none" xmlns="http://www.w3.org/2000/svg">
<path d="M8.125 8.625L11.6758 0.9375H15.5195L9.91797 11.8125V18H6.34375V11.8125L0.742188 0.9375H4.59766L8.125 8.625ZM48.7422 9.85547C48.7422 11.5352 48.4453 13.0078 47.8516 14.2734C47.2578 15.5391 46.4062 16.5156 45.2969 17.2031C44.1953 17.8906 42.9297 18.2344 41.5 18.2344C40.0859 18.2344 38.8242 17.8945 37.7148 17.2148C36.6055 16.5352 35.7461 15.5664 35.1367 14.3086C34.5273 13.043 34.2188 11.5898 34.2109 9.94922V9.10547C34.2109 7.42578 34.5117 5.94922 35.1133 4.67578C35.7227 3.39453 36.5781 2.41406 37.6797 1.73438C38.7891 1.04687 40.0547 0.703125 41.4766 0.703125C42.8984 0.703125 44.1602 1.04687 45.2617 1.73438C46.3711 2.41406 47.2266 3.39453 47.8281 4.67578C48.4375 5.94922 48.7422 7.42188 48.7422 9.09375V9.85547ZM45.1797 9.08203C45.1797 7.29297 44.8594 5.93359 44.2188 5.00391C43.5781 4.07422 42.6641 3.60938 41.4766 3.60938C40.2969 3.60938 39.3867 4.07031 38.7461 4.99219C38.1055 5.90625 37.7812 7.25 37.7734 9.02344V9.85547C37.7734 11.5977 38.0938 12.9492 38.7344 13.9102C39.375 14.8711 40.2969 15.3516 41.5 15.3516C42.6797 15.3516 43.5859 14.8906 44.2188 13.9688C44.8516 13.0391 45.1719 11.6875 45.1797 9.91406V9.08203ZM82.7969 15.8438C82.1641 16.6016 81.2695 17.1914 80.1133 17.6133C78.957 18.0273 77.6758 18.2344 76.2695 18.2344C74.793 18.2344 73.4961 17.9141 72.3789 17.2734C71.2695 16.625 70.4102 15.6875 69.8008 14.4609C69.1992 13.2344 68.8906 11.793 68.875 10.1367V8.97656C68.875 7.27344 69.1602 5.80078 69.7305 4.55859C70.3086 3.30859 71.1367 2.35547 72.2148 1.69922C73.3008 1.03516 74.5703 0.703125 76.0234 0.703125C78.0469 0.703125 79.6289 1.1875 80.7695 2.15625C81.9102 3.11719 82.5859 4.51953 82.7969 6.36328H79.375C79.2188 5.38672 78.8711 4.67188 78.332 4.21875C77.8008 3.76562 77.0664 3.53906 76.1289 3.53906C74.9336 3.53906 74.0234 3.98828 73.3984 4.88672C72.7734 5.78516 72.457 7.12109 72.4492 8.89453V9.98438C72.4492 11.7734 72.7891 13.125 73.4688 14.0391C74.1484 14.9531 75.1445 15.4102 76.457 15.4102C77.7773 15.4102 78.7188 15.1289 79.2812 14.5664V11.625H76.082V9.03516H82.7969V15.8438ZM113.289 14.4844H107.125L105.953 18H102.215L108.566 0.9375H111.824L118.211 18H114.473L113.289 14.4844ZM108.074 11.6367H112.34L110.195 5.25L108.074 11.6367ZM5.14844 28.9375L10.7266 42.8594L16.3047 28.9375H19.2227V46H16.9727V39.3555L17.1836 32.1836L11.582 46H9.85938L4.26953 32.2188L4.49219 39.3555V46H2.24219V28.9375H5.14844ZM32.8398 38.1133H25.4453V44.1602H34.0352V46H23.1953V28.9375H33.918V30.7891H25.4453V36.2734H32.8398V38.1133ZM48.8594 30.7891H43.375V46H41.1367V30.7891H35.6641V28.9375H48.8594V30.7891ZM66.5195 38.1133H59.125V44.1602H67.7148V46H56.875V28.9375H67.5977V30.7891H59.125V36.2734H66.5195V38.1133ZM72.7773 44.1602H80.8633V46H70.5156V28.9375H72.7773V44.1602ZM85.8438 46H83.5938V28.9375H85.8438V46ZM103.082 46H100.82L92.2305 32.8516V46H89.9688V28.9375H92.2305L100.844 42.1445V28.9375H103.082V46ZM116.723 38.1133H109.328V44.1602H117.918V46H107.078V28.9375H117.801V30.7891H109.328V36.2734H116.723V38.1133Z" fill="white"/>
</svg>
